{
    "asset" : {
        "generator" : "Khronos glTF Blender I/O v3.2.40",
        "version" : "2.0"
    },
    "scene" : 0,
    "scenes" : [
        {
            "name" : "Scene",
            "nodes" : [
                0
            ]
        }
    ],
    "nodes" : [
        {
            "mesh" : 0,
            "name" : "birdLeft"
        }
    ],
    "materials" : [
        {
            "doubleSided" : true,
            "name" : "birdLeftMat.002",
            "pbrMetallicRoughness" : {
                "baseColorTexture" : {
                    "index" : 0
                },
                "metallicFactor" : 0,
                "roughnessFactor" : 0.4000000059604645
            }
        }
    ],
    "meshes" : [
        {
            "name" : "Cube.008",
            "primitives" : [
                {
                    "attributes" : {
                        "POSITION" : 0,
                        "NORMAL" : 1,
                        "TEXCOORD_0" : 2
                    },
                    "indices" : 3,
                    "material" : 0
                }
            ]
        }
    ],
    "textures" : [
        {
            "sampler" : 0,
            "source" : 0
        }
    ],
    "images" : [
        {
            "mimeType" : "image/png",
            "name" : "birdLeftDiffuse1",
            "uri" : "birdLeftDiffuse1.png"
        }
    ],
    "accessors" : [
        {
            "bufferView" : 0,
            "componentType" : 5126,
            "count" : 2699,
            "max" : [
                0.7646293640136719,
                2.4330368041992188,
                2.090315818786621
            ],
            "min" : [
                -1.7497130632400513,
                -0.0010727643966674805,
                -1.1453590393066406
            ],
            "type" : "VEC3"
        },
        {
            "bufferView" : 1,
            "componentType" : 5126,
            "count" : 2699,
            "type" : "VEC3"
        },
        {
            "bufferView" : 2,
            "componentType" : 5126,
            "count" : 2699,
            "type" : "VEC2"
        },
        {
            "bufferView" : 3,
            "componentType" : 5123,
            "count" : 13254,
            "type" : "SCALAR"
        }
    ],
    "bufferViews" : [
        {
            "buffer" : 0,
            "byteLength" : 32388,
            "byteOffset" : 0
        },
        {
            "buffer" : 0,
            "byteLength" : 32388,
            "byteOffset" : 32388
        },
        {
            "buffer" : 0,
            "byteLength" : 21592,
            "byteOffset" : 64776
        },
        {
            "buffer" : 0,
            "byteLength" : 26508,
            "byteOffset" : 86368
        }
    ],
    "samplers" : [
        {
            "magFilter" : 9729,
            "minFilter" : 9987
        }
    ],
    "buffers" : [
        {
            "byteLength" : 112876,
            "uri" : "birdLeft.bin"
        }
    ]
}
